<svg role="img" xmlns="http://www.w3.org/2000/svg" viewBox="0 0 560 220" font-family='"Saira", "Saira Variable", ui-sans-serif, system-ui, sans-serif'>
  <title>SPI leg connector J_SR pinout (proposed)</title>
  <style>
    .card  { fill:#0d1626; stroke:rgba(59,139,235,0.22); stroke-width:1.5; }
    .net   { font-size:11.5px; fill:#c7d0e0; font-family:"SF Mono",Consolas,monospace; }
    .note  { font-size:11px; fill:#9ca8bc; font-style:italic; }
    .pinno { font-size:12px; font-weight:700; fill:#e8ecf4; }
    .housing { fill:#111827; stroke:#3b8beb; stroke-width:2; }
    .latch   { fill:#0d1626; stroke:#3b8beb; stroke-width:1.5; }
    .cav     { fill:#0a0e1a; stroke-width:1.6; }
    .v12   { stroke:#ef4444; } .t12 { fill:#f87171; }
    .v5    { stroke:#f4b321; } .t5  { fill:#f4b321; }
    .v33   { stroke:#4ade80; } .t33 { fill:#4ade80; }
    .gnd   { stroke:#64748b; } .tgnd { fill:#9ca8bc; }
    .sig   { stroke:#3b8beb; } .tsig { fill:#7db4f5; }
    .ret   { stroke:#a78bfa; } .tret { fill:#c4b5fd; }
  </style>
<rect class="card" x="1" y="1" width="558" height="218" rx="12"/>
<rect class="housing" x="92" y="52" width="376" height="68" rx="4"/>
<rect class="latch" x="84" y="52" width="8" height="68"/>
<rect class="latch" x="468" y="52" width="8" height="68"/>
<text class="note" x="280" y="40" text-anchor="middle">JST-XH — friction fit, polarized housing</text>
<polygon class="cav sig" points="121.2,66 138.8,66 150.0,77.2 150.0,94.8 138.8,106 121.2,106 110.0,94.8 110.0,77.2"/>
<text class="pinno" x="130" y="90" text-anchor="middle">1</text>
<text class="net tsig" x="130" y="146" text-anchor="middle">SCK</text>
<polygon class="cav sig" points="171.2,66 188.8,66 200.0,77.2 200.0,94.8 188.8,106 171.2,106 160.0,94.8 160.0,77.2"/>
<text class="pinno" x="180" y="90" text-anchor="middle">2</text>
<text class="net tsig" x="180" y="146" text-anchor="middle">MOSI</text>
<polygon class="cav sig" points="221.2,66 238.8,66 250.0,77.2 250.0,94.8 238.8,106 221.2,106 210.0,94.8 210.0,77.2"/>
<text class="pinno" x="230" y="90" text-anchor="middle">3</text>
<text class="net tsig" x="230" y="146" text-anchor="middle">MISO</text>
<polygon class="cav gnd" points="271.2,66 288.8,66 300.0,77.2 300.0,94.8 288.8,106 271.2,106 260.0,94.8 260.0,77.2"/>
<text class="pinno" x="280" y="90" text-anchor="middle">4</text>
<text class="net tgnd" x="280" y="146" text-anchor="middle">GND</text>
<polygon class="cav v33" points="321.2,66 338.8,66 350.0,77.2 350.0,94.8 338.8,106 321.2,106 310.0,94.8 310.0,77.2"/>
<text class="pinno" x="330" y="90" text-anchor="middle">5</text>
<text class="net t33" x="330" y="146" text-anchor="middle">+3V3</text>
<polygon class="cav sig" points="371.2,66 388.8,66 400.0,77.2 400.0,94.8 388.8,106 371.2,106 360.0,94.8 360.0,77.2"/>
<text class="pinno" x="380" y="90" text-anchor="middle">6</text>
<text class="net tsig" x="380" y="146" text-anchor="middle">LOAD</text>
<polygon class="cav sig" points="421.2,66 438.8,66 450.0,77.2 450.0,94.8 438.8,106 421.2,106 410.0,94.8 410.0,77.2"/>
<text class="pinno" x="430" y="90" text-anchor="middle">7</text>
<text class="net tsig" x="430" y="146" text-anchor="middle">LATCH</text>
<text class="net tsig" x="130" y="164" text-anchor="middle">▲ pin 1</text>
<rect class="cav v33" x="188" y="186" width="14" height="14"/>
<text class="net t33" x="206" y="197">+3V3</text>
<rect class="cav gnd" x="254" y="186" width="14" height="14"/>
<text class="net tgnd" x="274" y="197">GND</text>
<rect class="cav sig" x="314" y="186" width="14" height="14"/>
<text class="net tsig" x="334" y="197">signal</text>
</svg>
