<svg role="img" xmlns="http://www.w3.org/2000/svg" viewBox="0 0 560 312" font-family='"Saira", "Saira Variable", ui-sans-serif, system-ui, sans-serif'>
  <title>Backlight dual-zone connector pinout (proposed)</title>
  <style>
    .card  { fill:#0d1626; stroke:rgba(59,139,235,0.22); stroke-width:1.5; }
    .net   { font-size:11.5px; fill:#c7d0e0; font-family:"SF Mono",Consolas,monospace; }
    .note  { font-size:11px; fill:#9ca8bc; font-style:italic; }
    .pinno { font-size:12px; font-weight:700; fill:#e8ecf4; }
    .housing { fill:#111827; stroke:#3b8beb; stroke-width:2; }
    .latch   { fill:#0d1626; stroke:#3b8beb; stroke-width:1.5; }
    .cav     { fill:#0a0e1a; stroke-width:1.6; }
    .v12   { stroke:#ef4444; } .t12 { fill:#f87171; }
    .v5    { stroke:#f4b321; } .t5  { fill:#f4b321; }
    .v33   { stroke:#4ade80; } .t33 { fill:#4ade80; }
    .gnd   { stroke:#64748b; } .tgnd { fill:#9ca8bc; }
    .sig   { stroke:#3b8beb; } .tsig { fill:#7db4f5; }
    .ret   { stroke:#a78bfa; } .tret { fill:#c4b5fd; }
  </style>
<rect class="card" x="1" y="1" width="558" height="310" rx="12"/>
<rect class="latch" x="257" y="42" width="46" height="18" rx="3"/>
<text class="note" x="280" y="34" text-anchor="middle">latch (orientation datum — UP)</text>
<rect class="housing" x="205" y="58" width="150" height="142" rx="8"/>
<polygon class="cav ret" points="239.88,76 260.12,76 273.0,88.88 273.0,109.12 260.12,122 239.88,122 227.0,109.12 227.0,88.88"/>
<text class="pinno" x="250" y="103" text-anchor="middle">1</text>
<text class="net tret" x="250" y="226" text-anchor="middle">1:BL1_RET</text>
<polygon class="cav v12" points="299.88,76 320.12,76 333.0,88.88 333.0,109.12 320.12,122 299.88,122 287.0,109.12 287.0,88.88"/>
<text class="pinno" x="310" y="103" text-anchor="middle">2</text>
<text class="net t12" x="310" y="226" text-anchor="middle">2:+12V</text>
<polygon class="cav ret" points="239.88,136 260.12,136 273.0,148.88 273.0,169.12 260.12,182 239.88,182 227.0,169.12 227.0,148.88"/>
<text class="pinno" x="250" y="163" text-anchor="middle">3</text>
<text class="net tret" x="250" y="244" text-anchor="middle">3:BL2_RET</text>
<polygon class="cav v5" points="299.88,136 320.12,136 333.0,148.88 333.0,169.12 320.12,182 299.88,182 287.0,169.12 287.0,148.88"/>
<text class="pinno" x="310" y="163" text-anchor="middle">4</text>
<text class="net t5" x="310" y="244" text-anchor="middle">4:+5V</text>
<rect class="cav v12" x="158" y="278" width="14" height="14"/>
<text class="net t12" x="176" y="289">+12V</text>
<rect class="cav v5" x="224" y="278" width="14" height="14"/>
<text class="net t5" x="244" y="289">+5V</text>
<rect class="cav ret" x="284" y="278" width="14" height="14"/>
<text class="net tret" x="304" y="289">switched return</text>
</svg>
