<svg role="img" xmlns="http://www.w3.org/2000/svg" viewBox="0 0 566 220" font-family='"Saira", "Saira Variable", ui-sans-serif, system-ui, sans-serif'>
  <title>I2C leg connector J_I2C pinout</title>
  <style>
    .card  { fill:#0d1626; stroke:rgba(59,139,235,0.22); stroke-width:1.5; }
    .net   { font-size:11.5px; fill:#c7d0e0; font-family:"SF Mono",Consolas,monospace; }
    .note  { font-size:11px; fill:#9ca8bc; font-style:italic; }
    .pinno { font-size:12px; font-weight:700; fill:#e8ecf4; }
    .housing { fill:#111827; stroke:#3b8beb; stroke-width:2; }
    .latch   { fill:#0d1626; stroke:#3b8beb; stroke-width:1.5; }
    .cav     { fill:#0a0e1a; stroke-width:1.6; }
    .v12   { stroke:#ef4444; } .t12 { fill:#f87171; }
    .v5    { stroke:#f4b321; } .t5  { fill:#f4b321; }
    .v33   { stroke:#4ade80; } .t33 { fill:#4ade80; }
    .gnd   { stroke:#64748b; } .tgnd { fill:#9ca8bc; }
    .sig   { stroke:#3b8beb; } .tsig { fill:#7db4f5; }
    .ret   { stroke:#a78bfa; } .tret { fill:#c4b5fd; }
  </style>
<rect class="card" x="1" y="1" width="564" height="218" rx="12"/>
<rect class="housing" x="70" y="52" width="426" height="68" rx="4"/>
<rect class="latch" x="62" y="52" width="8" height="68"/>
<rect class="latch" x="496" y="52" width="8" height="68"/>
<text class="note" x="283" y="40" text-anchor="middle">JST-XH — friction fit, polarized housing</text>
<polygon class="cav sig" points="99.2,66 116.8,66 128.0,77.2 128.0,94.8 116.8,106 99.2,106 88.0,94.8 88.0,77.2"/>
<text class="pinno" x="108" y="90" text-anchor="middle">1</text>
<text class="net tsig" x="108" y="146" text-anchor="middle">SDA</text>
<polygon class="cav sig" points="149.2,66 166.8,66 178.0,77.2 178.0,94.8 166.8,106 149.2,106 138.0,94.8 138.0,77.2"/>
<text class="pinno" x="158" y="90" text-anchor="middle">2</text>
<text class="net tsig" x="158" y="146" text-anchor="middle">SCL</text>
<polygon class="cav gnd" points="199.2,66 216.8,66 228.0,77.2 228.0,94.8 216.8,106 199.2,106 188.0,94.8 188.0,77.2"/>
<text class="pinno" x="208" y="90" text-anchor="middle">3</text>
<text class="net tgnd" x="208" y="146" text-anchor="middle">GND</text>
<polygon class="cav gnd" points="249.2,66 266.8,66 278.0,77.2 278.0,94.8 266.8,106 249.2,106 238.0,94.8 238.0,77.2"/>
<text class="pinno" x="258" y="90" text-anchor="middle">4</text>
<text class="net tgnd" x="258" y="146" text-anchor="middle">GND</text>
<polygon class="cav v33" points="299.2,66 316.8,66 328.0,77.2 328.0,94.8 316.8,106 299.2,106 288.0,94.8 288.0,77.2"/>
<text class="pinno" x="308" y="90" text-anchor="middle">5</text>
<text class="net t33" x="308" y="146" text-anchor="middle">+3V3</text>
<polygon class="cav v5" points="349.2,66 366.8,66 378.0,77.2 378.0,94.8 366.8,106 349.2,106 338.0,94.8 338.0,77.2"/>
<text class="pinno" x="358" y="90" text-anchor="middle">6</text>
<text class="net t5" x="358" y="146" text-anchor="middle">INT_A</text>
<polygon class="cav v5" points="399.2,66 416.8,66 428.0,77.2 428.0,94.8 416.8,106 399.2,106 388.0,94.8 388.0,77.2"/>
<text class="pinno" x="408" y="90" text-anchor="middle">7</text>
<text class="net t5" x="408" y="146" text-anchor="middle">INT_B</text>
<polygon class="cav v5" points="449.2,66 466.8,66 478.0,77.2 478.0,94.8 466.8,106 449.2,106 438.0,94.8 438.0,77.2"/>
<text class="pinno" x="458" y="90" text-anchor="middle">8</text>
<text class="net t5" x="458" y="146" text-anchor="middle">spare</text>
<text class="net tsig" x="108" y="164" text-anchor="middle">▲ pin 1</text>
<rect class="cav v33" x="190" y="186" width="14" height="14"/>
<text class="net t33" x="210" y="197">+3V3</text>
<rect class="cav gnd" x="258" y="186" width="14" height="14"/>
<text class="net tgnd" x="276" y="197">GND</text>
<rect class="cav sig" x="318" y="186" width="14" height="14"/>
<text class="net tsig" x="336" y="197">signal</text>
<rect class="cav v5" x="390" y="186" width="14" height="14"/>
<text class="net t5" x="410" y="197">flex (6–8)</text>
</svg>
